<svg width="90" height="29" viewBox="0 0 90 29" fill="none" xmlns="http://www.w3.org/2000/svg">
<path d="M32.4688 20.7461C31.625 21.7383 30.3867 22.2344 28.7539 22.2344C27.4023 22.2344 26.3711 21.8438 25.6602 21.0625C24.957 20.2734 24.6016 19.1094 24.5938 17.5703V9.32031H26.7617V17.5117C26.7617 19.4336 27.543 20.3945 29.1055 20.3945C30.7617 20.3945 31.8633 19.7773 32.4102 18.543V9.32031H34.5781V22H32.5156L32.4688 20.7461ZM39.9336 9.32031L40.0039 10.9141C40.9727 9.69531 42.2383 9.08594 43.8008 9.08594C46.4805 9.08594 47.832 10.5977 47.8555 13.6211V22H45.6875V13.6094C45.6797 12.6953 45.4688 12.0195 45.0547 11.582C44.6484 11.1445 44.0117 10.9258 43.1445 10.9258C42.4414 10.9258 41.8242 11.1133 41.293 11.4883C40.7617 11.8633 40.3477 12.3555 40.0508 12.9648V22H37.8828V9.32031H39.9336ZM56.2109 20.4648C56.9844 20.4648 57.6602 20.2305 58.2383 19.7617C58.8164 19.293 59.1367 18.707 59.1992 18.0039H61.25C61.2109 18.7305 60.9609 19.4219 60.5 20.0781C60.0391 20.7344 59.4219 21.2578 58.6484 21.6484C57.8828 22.0391 57.0703 22.2344 56.2109 22.2344C54.4844 22.2344 53.1094 21.6602 52.0859 20.5117C51.0703 19.3555 50.5625 17.7773 50.5625 15.7773V15.4141C50.5625 14.1797 50.7891 13.082 51.2422 12.1211C51.6953 11.1602 52.3438 10.4141 53.1875 9.88281C54.0391 9.35156 55.043 9.08594 56.1992 9.08594C57.6211 9.08594 58.8008 9.51172 59.7383 10.3633C60.6836 11.2148 61.1875 12.3203 61.25 13.6797H59.1992C59.1367 12.8594 58.8242 12.1875 58.2617 11.6641C57.707 11.1328 57.0195 10.8672 56.1992 10.8672C55.0977 10.8672 54.2422 11.2656 53.6328 12.0625C53.0312 12.8516 52.7305 13.9961 52.7305 15.4961V15.9062C52.7305 17.3672 53.0312 18.4922 53.6328 19.2812C54.2344 20.0703 55.0938 20.4648 56.2109 20.4648ZM63.1133 15.543C63.1133 14.3008 63.3555 13.1836 63.8398 12.1914C64.332 11.1992 65.0117 10.4336 65.8789 9.89453C66.7539 9.35547 67.75 9.08594 68.8672 9.08594C70.5938 9.08594 71.9883 9.68359 73.0508 10.8789C74.1211 12.0742 74.6562 13.6641 74.6562 15.6484V15.8008C74.6562 17.0352 74.418 18.1445 73.9414 19.1289C73.4727 20.1055 72.7969 20.8672 71.9141 21.4141C71.0391 21.9609 70.0312 22.2344 68.8906 22.2344C67.1719 22.2344 65.7773 21.6367 64.707 20.4414C63.6445 19.2461 63.1133 17.6641 63.1133 15.6953V15.543ZM65.293 15.8008C65.293 17.207 65.6172 18.3359 66.2656 19.1875C66.9219 20.0391 67.7969 20.4648 68.8906 20.4648C69.9922 20.4648 70.8672 20.0352 71.5156 19.1758C72.1641 18.3086 72.4883 17.0977 72.4883 15.543C72.4883 14.1523 72.1562 13.0273 71.4922 12.168C70.8359 11.3008 69.9609 10.8672 68.8672 10.8672C67.7969 10.8672 66.9336 11.293 66.2773 12.1445C65.6211 12.9961 65.293 14.2148 65.293 15.8008ZM79.4258 9.32031L79.4961 10.9141C80.4648 9.69531 81.7305 9.08594 83.293 9.08594C85.9727 9.08594 87.3242 10.5977 87.3477 13.6211V22H85.1797V13.6094C85.1719 12.6953 84.9609 12.0195 84.5469 11.582C84.1406 11.1445 83.5039 10.9258 82.6367 10.9258C81.9336 10.9258 81.3164 11.1133 80.7852 11.4883C80.2539 11.8633 79.8398 12.3555 79.543 12.9648V22H77.375V9.32031H79.4258Z" fill="black"/>
<circle cx="11.5" cy="12.5" r="3" stroke="black"/>
<circle cx="18.2634" cy="16.2601" r="2.82286" transform="rotate(60 18.2634 16.2601)" stroke="black"/>
<circle cx="4.53911" cy="16.2601" r="2.82286" transform="rotate(-60 4.53911 16.2601)" stroke="black"/>
<path d="M1 22L22 22" stroke="black"/>
</svg>
